
<svg version="1.0" xmlns="http://www.w3.org/2000/svg"
 width="236" height="56" viewBox="0 0 236 56"
 preserveAspectRatio="xMidYMid meet">

<g transform="translate(0.000000,56.000000) scale(0.100000,-0.100000)"
fill="#000000" stroke="none">
<path d="M50 483 c16 -38 71 -160 123 -273 l95 -205 114 -3 c84 -2 118 1 125
10 14 17 243 517 243 529 0 6 -46 8 -111 7 l-111 -3 -61 -155 c-42 -103 -67
-156 -78 -158 -13 -2 -31 33 -80 157 l-62 161 -113 0 -113 0 29 -67z" fill="#A3222E"/>
<path d="M880 275 l0 -275 110 0 110 0 0 275 0 275 -110 0 -110 0 0 -275z" fill="#A3222E"/>
<path d="M1288 533 c-35 -41 -38 -61 -38 -298 l0 -236 108 3 107 3 3 191 c3
234 -1 227 133 232 l89 4 0 59 0 59 -193 0 c-172 0 -196 -2 -209 -17z" fill="#A3222E"/>
<path d="M1797 520 c-32 -37 -41 -94 -26 -153 18 -74 52 -99 199 -147 147 -48
155 -53 147 -74 -6 -14 -30 -16 -177 -16 l-170 0 0 -65 0 -65 258 0 c255 0
259 0 279 23 33 35 43 62 43 112 0 118 -55 164 -268 221 -101 27 -131 46 -101
65 8 5 92 9 187 9 l172 0 0 60 0 60 -259 0 -259 0 -25 -30z" fill="#A3222E"/>
</g>
</svg>
